<svg xmlns="http://www.w3.org/2000/svg" width="1110" height="1350" viewBox="0 0 1110 1350">
<rect width="100%" height="100%" fill="#f3f5f4"/>
<text x="30" y="47" font-family="DejaVu Sans,Arial,sans-serif" font-size="28" fill="#26332b" font-weight="bold">HexCrawl.ru · Точки интереса · v2</text>
<text x="30" y="79" font-family="DejaVu Sans,Arial,sans-serif" font-size="15" fill="#26332b">32 наземных · 6 водных · общий маркер</text>
<text x="30" y="104" font-family="DejaVu Sans,Arial,sans-serif" font-size="13" fill="#536258">Один узнаваемый образ · 64 px / 24 px на белом и на цвете карты</text>
<g transform="translate(30 124)">
<rect width="200" height="138" rx="8" fill="#fff" stroke="#d9e1dc"/>
<g transform="translate(16 15) scale(1.0)" fill="#26332b" fill-rule="evenodd"><path d="M7 16 20 27 32 8 44 27 57 16 49 55H15Z"/></g>
<g transform="translate(105 28) scale(0.375)" fill="#26332b" fill-rule="evenodd"><path d="M7 16 20 27 32 8 44 27 57 16 49 55H15Z"/></g>
<rect x="146" y="20" width="38" height="38" rx="5" fill="#c8ee8c"/>
<g transform="translate(153 27) scale(0.375)" fill="#26332b" fill-rule="evenodd"><path d="M7 16 20 27 32 8 44 27 57 16 49 55H15Z"/></g>
<text x="14" y="101" font-family="DejaVu Sans,Arial,sans-serif" font-size="13" fill="#26332b" font-weight="bold">Столица</text>
<text x="14" y="122" font-family="DejaVu Sans,Arial,sans-serif" font-size="10.5" fill="#617068">land/capital</text>
</g>
<g transform="translate(240 124)">
<rect width="200" height="138" rx="8" fill="#fff" stroke="#d9e1dc"/>
<g transform="translate(16 15) scale(1.0)" fill="#26332b" fill-rule="evenodd"><path d="M5 57V34L15 23 23 31V21L33 8 44 21V35L51 26 59 35v22Z"/></g>
<g transform="translate(105 28) scale(0.375)" fill="#26332b" fill-rule="evenodd"><path d="M5 57V34L15 23 23 31V21L33 8 44 21V35L51 26 59 35v22Z"/></g>
<rect x="146" y="20" width="38" height="38" rx="5" fill="#c8ee8c"/>
<g transform="translate(153 27) scale(0.375)" fill="#26332b" fill-rule="evenodd"><path d="M5 57V34L15 23 23 31V21L33 8 44 21V35L51 26 59 35v22Z"/></g>
<text x="14" y="101" font-family="DejaVu Sans,Arial,sans-serif" font-size="13" fill="#26332b" font-weight="bold">Город</text>
<text x="14" y="122" font-family="DejaVu Sans,Arial,sans-serif" font-size="10.5" fill="#617068">land/city</text>
</g>
<g transform="translate(450 124)">
<rect width="200" height="138" rx="8" fill="#fff" stroke="#d9e1dc"/>
<g transform="translate(16 15) scale(1.0)" fill="#26332b" fill-rule="evenodd"><path d="M5 33 29 10 43 23V12h7v18l9 9h-8v18H13V33Z"/></g>
<g transform="translate(105 28) scale(0.375)" fill="#26332b" fill-rule="evenodd"><path d="M5 33 29 10 43 23V12h7v18l9 9h-8v18H13V33Z"/></g>
<rect x="146" y="20" width="38" height="38" rx="5" fill="#c8ee8c"/>
<g transform="translate(153 27) scale(0.375)" fill="#26332b" fill-rule="evenodd"><path d="M5 33 29 10 43 23V12h7v18l9 9h-8v18H13V33Z"/></g>
<text x="14" y="101" font-family="DejaVu Sans,Arial,sans-serif" font-size="13" fill="#26332b" font-weight="bold">Городок</text>
<text x="14" y="122" font-family="DejaVu Sans,Arial,sans-serif" font-size="10.5" fill="#617068">land/town</text>
</g>
<g transform="translate(660 124)">
<rect width="200" height="138" rx="8" fill="#fff" stroke="#d9e1dc"/>
<g transform="translate(16 15) scale(1.0)" fill="#26332b" fill-rule="evenodd"><path d="M5 34Q14 20 32 12q18 8 27 22H50v23H14V34Z"/></g>
<g transform="translate(105 28) scale(0.375)" fill="#26332b" fill-rule="evenodd"><path d="M5 34Q14 20 32 12q18 8 27 22H50v23H14V34Z"/></g>
<rect x="146" y="20" width="38" height="38" rx="5" fill="#c8ee8c"/>
<g transform="translate(153 27) scale(0.375)" fill="#26332b" fill-rule="evenodd"><path d="M5 34Q14 20 32 12q18 8 27 22H50v23H14V34Z"/></g>
<text x="14" y="101" font-family="DejaVu Sans,Arial,sans-serif" font-size="13" fill="#26332b" font-weight="bold">Деревня</text>
<text x="14" y="122" font-family="DejaVu Sans,Arial,sans-serif" font-size="10.5" fill="#617068">land/village</text>
</g>
<g transform="translate(870 124)">
<rect width="200" height="138" rx="8" fill="#fff" stroke="#d9e1dc"/>
<g transform="translate(16 15) scale(1.0)" fill="#26332b" fill-rule="evenodd"><path d="M17 47c0-6 7-8 9-14 2-7 10-7 12 0 2 6 9 8 9 14 0 9-10 10-15 6-5 4-15 3-15-6Z"/><ellipse cx="13" cy="29" rx="6" ry="8" transform="rotate(-28 13 29)"/><ellipse cx="25" cy="17" rx="6" ry="9" transform="rotate(-12 25 17)"/><ellipse cx="39" cy="17" rx="6" ry="9" transform="rotate(12 39 17)"/><ellipse cx="51" cy="29" rx="6" ry="8" transform="rotate(28 51 29)"/></g>
<g transform="translate(105 28) scale(0.375)" fill="#26332b" fill-rule="evenodd"><path d="M17 47c0-6 7-8 9-14 2-7 10-7 12 0 2 6 9 8 9 14 0 9-10 10-15 6-5 4-15 3-15-6Z"/><ellipse cx="13" cy="29" rx="6" ry="8" transform="rotate(-28 13 29)"/><ellipse cx="25" cy="17" rx="6" ry="9" transform="rotate(-12 25 17)"/><ellipse cx="39" cy="17" rx="6" ry="9" transform="rotate(12 39 17)"/><ellipse cx="51" cy="29" rx="6" ry="8" transform="rotate(28 51 29)"/></g>
<rect x="146" y="20" width="38" height="38" rx="5" fill="#c8ee8c"/>
<g transform="translate(153 27) scale(0.375)" fill="#26332b" fill-rule="evenodd"><path d="M17 47c0-6 7-8 9-14 2-7 10-7 12 0 2 6 9 8 9 14 0 9-10 10-15 6-5 4-15 3-15-6Z"/><ellipse cx="13" cy="29" rx="6" ry="8" transform="rotate(-28 13 29)"/><ellipse cx="25" cy="17" rx="6" ry="9" transform="rotate(-12 25 17)"/><ellipse cx="39" cy="17" rx="6" ry="9" transform="rotate(12 39 17)"/><ellipse cx="51" cy="29" rx="6" ry="8" transform="rotate(28 51 29)"/></g>
<text x="14" y="101" font-family="DejaVu Sans,Arial,sans-serif" font-size="13" fill="#26332b" font-weight="bold">Логово</text>
<text x="14" y="122" font-family="DejaVu Sans,Arial,sans-serif" font-size="10.5" fill="#617068">land/lair</text>
</g>
<g transform="translate(30 272)">
<rect width="200" height="138" rx="8" fill="#fff" stroke="#d9e1dc"/>
<g transform="translate(16 15) scale(1.0)" fill="#26332b" fill-rule="evenodd"><path d="M6 56V20l10 3V10l10 11 1 9h9V20l8 5 6-11 8 12v30H43V47c0-7-5-11-11-11s-11 4-11 11v9Z"/></g>
<g transform="translate(105 28) scale(0.375)" fill="#26332b" fill-rule="evenodd"><path d="M6 56V20l10 3V10l10 11 1 9h9V20l8 5 6-11 8 12v30H43V47c0-7-5-11-11-11s-11 4-11 11v9Z"/></g>
<rect x="146" y="20" width="38" height="38" rx="5" fill="#c8ee8c"/>
<g transform="translate(153 27) scale(0.375)" fill="#26332b" fill-rule="evenodd"><path d="M6 56V20l10 3V10l10 11 1 9h9V20l8 5 6-11 8 12v30H43V47c0-7-5-11-11-11s-11 4-11 11v9Z"/></g>
<text x="14" y="101" font-family="DejaVu Sans,Arial,sans-serif" font-size="13" fill="#26332b" font-weight="bold">Руины</text>
<text x="14" y="122" font-family="DejaVu Sans,Arial,sans-serif" font-size="10.5" fill="#617068">land/ruins</text>
</g>
<g transform="translate(240 272)">
<rect width="200" height="138" rx="8" fill="#fff" stroke="#d9e1dc"/>
<g transform="translate(16 15) scale(1.0)" fill="#26332b" fill-rule="evenodd"><path d="M13 29C13 15 21 8 32 8s19 7 19 21l-5 12h-6v14h-6v-6h-4v6h-6V41h-6ZM20 25v11h9l-2-11Zm17 0-2 11h9V25Z"/></g>
<g transform="translate(105 28) scale(0.375)" fill="#26332b" fill-rule="evenodd"><path d="M13 29C13 15 21 8 32 8s19 7 19 21l-5 12h-6v14h-6v-6h-4v6h-6V41h-6ZM20 25v11h9l-2-11Zm17 0-2 11h9V25Z"/></g>
<rect x="146" y="20" width="38" height="38" rx="5" fill="#c8ee8c"/>
<g transform="translate(153 27) scale(0.375)" fill="#26332b" fill-rule="evenodd"><path d="M13 29C13 15 21 8 32 8s19 7 19 21l-5 12h-6v14h-6v-6h-4v6h-6V41h-6ZM20 25v11h9l-2-11Zm17 0-2 11h9V25Z"/></g>
<text x="14" y="101" font-family="DejaVu Sans,Arial,sans-serif" font-size="13" fill="#26332b" font-weight="bold">Проклятое место</text>
<text x="14" y="122" font-family="DejaVu Sans,Arial,sans-serif" font-size="10.5" fill="#617068">land/cursed_place</text>
</g>
<g transform="translate(450 272)">
<rect width="200" height="138" rx="8" fill="#fff" stroke="#d9e1dc"/>
<g transform="translate(16 15) scale(1.0)" fill="#26332b" fill-rule="evenodd"><path d="M32 5Q36 26 57 32 36 38 32 59 28 38 7 32 28 26 32 5Z"/></g>
<g transform="translate(105 28) scale(0.375)" fill="#26332b" fill-rule="evenodd"><path d="M32 5Q36 26 57 32 36 38 32 59 28 38 7 32 28 26 32 5Z"/></g>
<rect x="146" y="20" width="38" height="38" rx="5" fill="#c8ee8c"/>
<g transform="translate(153 27) scale(0.375)" fill="#26332b" fill-rule="evenodd"><path d="M32 5Q36 26 57 32 36 38 32 59 28 38 7 32 28 26 32 5Z"/></g>
<text x="14" y="101" font-family="DejaVu Sans,Arial,sans-serif" font-size="13" fill="#26332b" font-weight="bold">Святое место</text>
<text x="14" y="122" font-family="DejaVu Sans,Arial,sans-serif" font-size="10.5" fill="#617068">land/holy_place</text>
</g>
<g transform="translate(660 272)">
<rect width="200" height="138" rx="8" fill="#fff" stroke="#d9e1dc"/>
<g transform="translate(16 15) scale(1.0)" fill="#26332b" fill-rule="evenodd"><path d="M9 13h12v11h11v11h11v11h12v12H9Z"/></g>
<g transform="translate(105 28) scale(0.375)" fill="#26332b" fill-rule="evenodd"><path d="M9 13h12v11h11v11h11v11h12v12H9Z"/></g>
<rect x="146" y="20" width="38" height="38" rx="5" fill="#c8ee8c"/>
<g transform="translate(153 27) scale(0.375)" fill="#26332b" fill-rule="evenodd"><path d="M9 13h12v11h11v11h11v11h12v12H9Z"/></g>
<text x="14" y="101" font-family="DejaVu Sans,Arial,sans-serif" font-size="13" fill="#26332b" font-weight="bold">Подземелье</text>
<text x="14" y="122" font-family="DejaVu Sans,Arial,sans-serif" font-size="10.5" fill="#617068">land/dungeon</text>
</g>
<g transform="translate(870 272)">
<rect width="200" height="138" rx="8" fill="#fff" stroke="#d9e1dc"/>
<g transform="translate(16 15) scale(1.0)" fill="#26332b" fill-rule="evenodd"><path d="M5 56 27 17 23 10 27 7 31 13 35 7 39 10 35 17 59 56H39L32 39 25 56Z"/></g>
<g transform="translate(105 28) scale(0.375)" fill="#26332b" fill-rule="evenodd"><path d="M5 56 27 17 23 10 27 7 31 13 35 7 39 10 35 17 59 56H39L32 39 25 56Z"/></g>
<rect x="146" y="20" width="38" height="38" rx="5" fill="#c8ee8c"/>
<g transform="translate(153 27) scale(0.375)" fill="#26332b" fill-rule="evenodd"><path d="M5 56 27 17 23 10 27 7 31 13 35 7 39 10 35 17 59 56H39L32 39 25 56Z"/></g>
<text x="14" y="101" font-family="DejaVu Sans,Arial,sans-serif" font-size="13" fill="#26332b" font-weight="bold">Лагерь</text>
<text x="14" y="122" font-family="DejaVu Sans,Arial,sans-serif" font-size="10.5" fill="#617068">land/camp</text>
</g>
<g transform="translate(30 420)">
<rect width="200" height="138" rx="8" fill="#fff" stroke="#d9e1dc"/>
<g transform="translate(16 15) scale(1.0)" fill="#26332b" fill-rule="evenodd"><path d="M7 57V27H3L15 8 27 27H23v11h18V27h-4L49 8 61 27h-4v30Z"/></g>
<g transform="translate(105 28) scale(0.375)" fill="#26332b" fill-rule="evenodd"><path d="M7 57V27H3L15 8 27 27H23v11h18V27h-4L49 8 61 27h-4v30Z"/></g>
<rect x="146" y="20" width="38" height="38" rx="5" fill="#c8ee8c"/>
<g transform="translate(153 27) scale(0.375)" fill="#26332b" fill-rule="evenodd"><path d="M7 57V27H3L15 8 27 27H23v11h18V27h-4L49 8 61 27h-4v30Z"/></g>
<text x="14" y="101" font-family="DejaVu Sans,Arial,sans-serif" font-size="13" fill="#26332b" font-weight="bold">Замок</text>
<text x="14" y="122" font-family="DejaVu Sans,Arial,sans-serif" font-size="10.5" fill="#617068">land/castle</text>
</g>
<g transform="translate(240 420)">
<rect width="200" height="138" rx="8" fill="#fff" stroke="#d9e1dc"/>
<g transform="translate(16 15) scale(1.0)" fill="#26332b" fill-rule="evenodd"><path d="M12 23q-1-10 9-10 6-6 13-1 9-2 12 7l11 2-2 12-10 1-2 9v13h-7V45H22v11h-7V42Q5 38 6 31q0-6 6-8Z"/></g>
<g transform="translate(105 28) scale(0.375)" fill="#26332b" fill-rule="evenodd"><path d="M12 23q-1-10 9-10 6-6 13-1 9-2 12 7l11 2-2 12-10 1-2 9v13h-7V45H22v11h-7V42Q5 38 6 31q0-6 6-8Z"/></g>
<rect x="146" y="20" width="38" height="38" rx="5" fill="#c8ee8c"/>
<g transform="translate(153 27) scale(0.375)" fill="#26332b" fill-rule="evenodd"><path d="M12 23q-1-10 9-10 6-6 13-1 9-2 12 7l11 2-2 12-10 1-2 9v13h-7V45H22v11h-7V42Q5 38 6 31q0-6 6-8Z"/></g>
<text x="14" y="101" font-family="DejaVu Sans,Arial,sans-serif" font-size="13" fill="#26332b" font-weight="bold">Пастбище</text>
<text x="14" y="122" font-family="DejaVu Sans,Arial,sans-serif" font-size="10.5" fill="#617068">land/pasture</text>
</g>
<g transform="translate(450 420)">
<rect width="200" height="138" rx="8" fill="#fff" stroke="#d9e1dc"/>
<g transform="translate(16 15) scale(1.0)" fill="#26332b" fill-rule="evenodd"><path d="M5 57 10 34 21 17 36 10 50 24 59 57H42V43c0-11-4-17-10-17s-10 6-10 17v14Z"/></g>
<g transform="translate(105 28) scale(0.375)" fill="#26332b" fill-rule="evenodd"><path d="M5 57 10 34 21 17 36 10 50 24 59 57H42V43c0-11-4-17-10-17s-10 6-10 17v14Z"/></g>
<rect x="146" y="20" width="38" height="38" rx="5" fill="#c8ee8c"/>
<g transform="translate(153 27) scale(0.375)" fill="#26332b" fill-rule="evenodd"><path d="M5 57 10 34 21 17 36 10 50 24 59 57H42V43c0-11-4-17-10-17s-10 6-10 17v14Z"/></g>
<text x="14" y="101" font-family="DejaVu Sans,Arial,sans-serif" font-size="13" fill="#26332b" font-weight="bold">Пещера</text>
<text x="14" y="122" font-family="DejaVu Sans,Arial,sans-serif" font-size="10.5" fill="#617068">land/cave</text>
</g>
<g transform="translate(660 420)">
<rect width="200" height="138" rx="8" fill="#fff" stroke="#d9e1dc"/>
<g transform="translate(16 15) scale(1.0)" fill="#26332b" fill-rule="evenodd"><path d="M17 57V24C17 4 47 4 47 24v33Z"/></g>
<g transform="translate(105 28) scale(0.375)" fill="#26332b" fill-rule="evenodd"><path d="M17 57V24C17 4 47 4 47 24v33Z"/></g>
<rect x="146" y="20" width="38" height="38" rx="5" fill="#c8ee8c"/>
<g transform="translate(153 27) scale(0.375)" fill="#26332b" fill-rule="evenodd"><path d="M17 57V24C17 4 47 4 47 24v33Z"/></g>
<text x="14" y="101" font-family="DejaVu Sans,Arial,sans-serif" font-size="13" fill="#26332b" font-weight="bold">Кладбище</text>
<text x="14" y="122" font-family="DejaVu Sans,Arial,sans-serif" font-size="10.5" fill="#617068">land/graveyard</text>
</g>
<g transform="translate(870 420)">
<rect width="200" height="138" rx="8" fill="#fff" stroke="#d9e1dc"/>
<g transform="translate(16 15) scale(1.0)" fill="#26332b" fill-rule="evenodd"><path d="M10 10h44v20c0 15-10 23-22 29C20 53 10 45 10 30Z"/></g>
<g transform="translate(105 28) scale(0.375)" fill="#26332b" fill-rule="evenodd"><path d="M10 10h44v20c0 15-10 23-22 29C20 53 10 45 10 30Z"/></g>
<rect x="146" y="20" width="38" height="38" rx="5" fill="#c8ee8c"/>
<g transform="translate(153 27) scale(0.375)" fill="#26332b" fill-rule="evenodd"><path d="M10 10h44v20c0 15-10 23-22 29C20 53 10 45 10 30Z"/></g>
<text x="14" y="101" font-family="DejaVu Sans,Arial,sans-serif" font-size="13" fill="#26332b" font-weight="bold">Форт</text>
<text x="14" y="122" font-family="DejaVu Sans,Arial,sans-serif" font-size="10.5" fill="#617068">land/fort</text>
</g>
<g transform="translate(30 568)">
<rect width="200" height="138" rx="8" fill="#fff" stroke="#d9e1dc"/>
<g transform="translate(16 15) scale(1.0)" fill="#26332b" fill-rule="evenodd"><path d="M5 32 29 13 42 17V9h7v16l10 7-4 6-6-3 3 22H11l3-22-6 3Z"/></g>
<g transform="translate(105 28) scale(0.375)" fill="#26332b" fill-rule="evenodd"><path d="M5 32 29 13 42 17V9h7v16l10 7-4 6-6-3 3 22H11l3-22-6 3Z"/></g>
<rect x="146" y="20" width="38" height="38" rx="5" fill="#c8ee8c"/>
<g transform="translate(153 27) scale(0.375)" fill="#26332b" fill-rule="evenodd"><path d="M5 32 29 13 42 17V9h7v16l10 7-4 6-6-3 3 22H11l3-22-6 3Z"/></g>
<text x="14" y="101" font-family="DejaVu Sans,Arial,sans-serif" font-size="13" fill="#26332b" font-weight="bold">Хижина</text>
<text x="14" y="122" font-family="DejaVu Sans,Arial,sans-serif" font-size="10.5" fill="#617068">land/hut</text>
</g>
<g transform="translate(240 568)">
<rect width="200" height="138" rx="8" fill="#fff" stroke="#d9e1dc"/>
<g transform="translate(16 15) scale(1.0)" fill="#26332b" fill-rule="evenodd"><path d="M8 14h48v11h-6l6 33H45l-5-33H24l-5 33H8l6-33H8Z"/></g>
<g transform="translate(105 28) scale(0.375)" fill="#26332b" fill-rule="evenodd"><path d="M8 14h48v11h-6l6 33H45l-5-33H24l-5 33H8l6-33H8Z"/></g>
<rect x="146" y="20" width="38" height="38" rx="5" fill="#c8ee8c"/>
<g transform="translate(153 27) scale(0.375)" fill="#26332b" fill-rule="evenodd"><path d="M8 14h48v11h-6l6 33H45l-5-33H24l-5 33H8l6-33H8Z"/></g>
<text x="14" y="101" font-family="DejaVu Sans,Arial,sans-serif" font-size="13" fill="#26332b" font-weight="bold">Рудник</text>
<text x="14" y="122" font-family="DejaVu Sans,Arial,sans-serif" font-size="10.5" fill="#617068">land/mine</text>
</g>
<g transform="translate(450 568)">
<rect width="200" height="138" rx="8" fill="#fff" stroke="#d9e1dc"/>
<g transform="translate(16 15) scale(1.0)" fill="#26332b" fill-rule="evenodd"><path d="M13 59v-8h9l3-36 7-10 7 10 3 36h9v8Z"/></g>
<g transform="translate(105 28) scale(0.375)" fill="#26332b" fill-rule="evenodd"><path d="M13 59v-8h9l3-36 7-10 7 10 3 36h9v8Z"/></g>
<rect x="146" y="20" width="38" height="38" rx="5" fill="#c8ee8c"/>
<g transform="translate(153 27) scale(0.375)" fill="#26332b" fill-rule="evenodd"><path d="M13 59v-8h9l3-36 7-10 7 10 3 36h9v8Z"/></g>
<text x="14" y="101" font-family="DejaVu Sans,Arial,sans-serif" font-size="13" fill="#26332b" font-weight="bold">Обелиск</text>
<text x="14" y="122" font-family="DejaVu Sans,Arial,sans-serif" font-size="10.5" fill="#617068">land/obelisk</text>
</g>
<g transform="translate(660 568)">
<rect width="200" height="138" rx="8" fill="#fff" stroke="#d9e1dc"/>
<g transform="translate(16 15) scale(1.0)" fill="#26332b" fill-rule="evenodd"><path d="M8 13h34v7h5c17 0 17 26 0 26h-5v5q0 7-7 7H15q-7 0-7-7ZM42 26v14h5c9 0 9-14 0-14Z"/></g>
<g transform="translate(105 28) scale(0.375)" fill="#26332b" fill-rule="evenodd"><path d="M8 13h34v7h5c17 0 17 26 0 26h-5v5q0 7-7 7H15q-7 0-7-7ZM42 26v14h5c9 0 9-14 0-14Z"/></g>
<rect x="146" y="20" width="38" height="38" rx="5" fill="#c8ee8c"/>
<g transform="translate(153 27) scale(0.375)" fill="#26332b" fill-rule="evenodd"><path d="M8 13h34v7h5c17 0 17 26 0 26h-5v5q0 7-7 7H15q-7 0-7-7ZM42 26v14h5c9 0 9-14 0-14Z"/></g>
<text x="14" y="101" font-family="DejaVu Sans,Arial,sans-serif" font-size="13" fill="#26332b" font-weight="bold">Таверна</text>
<text x="14" y="122" font-family="DejaVu Sans,Arial,sans-serif" font-size="10.5" fill="#617068">land/tavern</text>
</g>
<g transform="translate(870 568)">
<rect width="200" height="138" rx="8" fill="#fff" stroke="#d9e1dc"/>
<g transform="translate(16 15) scale(1.0)" fill="#26332b" fill-rule="evenodd"><path d="M16 7h8v7h5V7h7v7h5V7h8v16h-5l3 34H17l3-34h-4Z"/></g>
<g transform="translate(105 28) scale(0.375)" fill="#26332b" fill-rule="evenodd"><path d="M16 7h8v7h5V7h7v7h5V7h8v16h-5l3 34H17l3-34h-4Z"/></g>
<rect x="146" y="20" width="38" height="38" rx="5" fill="#c8ee8c"/>
<g transform="translate(153 27) scale(0.375)" fill="#26332b" fill-rule="evenodd"><path d="M16 7h8v7h5V7h7v7h5V7h8v16h-5l3 34H17l3-34h-4Z"/></g>
<text x="14" y="101" font-family="DejaVu Sans,Arial,sans-serif" font-size="13" fill="#26332b" font-weight="bold">Башня</text>
<text x="14" y="122" font-family="DejaVu Sans,Arial,sans-serif" font-size="10.5" fill="#617068">land/tower</text>
</g>
<g transform="translate(30 716)">
<rect width="200" height="138" rx="8" fill="#fff" stroke="#d9e1dc"/>
<g transform="translate(16 15) scale(1.0)" fill="#26332b" fill-rule="evenodd"><path d="M32 5C4 5 4 59 32 59S60 5 32 5Zm0 9c-16 0-16 36 0 36s16-36 0-36Z"/></g>
<g transform="translate(105 28) scale(0.375)" fill="#26332b" fill-rule="evenodd"><path d="M32 5C4 5 4 59 32 59S60 5 32 5Zm0 9c-16 0-16 36 0 36s16-36 0-36Z"/></g>
<rect x="146" y="20" width="38" height="38" rx="5" fill="#c8ee8c"/>
<g transform="translate(153 27) scale(0.375)" fill="#26332b" fill-rule="evenodd"><path d="M32 5C4 5 4 59 32 59S60 5 32 5Zm0 9c-16 0-16 36 0 36s16-36 0-36Z"/></g>
<text x="14" y="101" font-family="DejaVu Sans,Arial,sans-serif" font-size="13" fill="#26332b" font-weight="bold">Портал</text>
<text x="14" y="122" font-family="DejaVu Sans,Arial,sans-serif" font-size="10.5" fill="#617068">land/portal</text>
</g>
<g transform="translate(240 716)">
<rect width="200" height="138" rx="8" fill="#fff" stroke="#d9e1dc"/>
<g transform="translate(16 15) scale(1.0)" fill="#26332b" fill-rule="evenodd"><path d="M24 30h16l5 27H19Z"/><path d="M32 24 20 6l-7 7 17 14-19 13 7 7 14-17 12 18 7-7-17-14 19-13-7-7Z"/><circle cx="32" cy="27" r="4"/></g>
<g transform="translate(105 28) scale(0.375)" fill="#26332b" fill-rule="evenodd"><path d="M24 30h16l5 27H19Z"/><path d="M32 24 20 6l-7 7 17 14-19 13 7 7 14-17 12 18 7-7-17-14 19-13-7-7Z"/><circle cx="32" cy="27" r="4"/></g>
<rect x="146" y="20" width="38" height="38" rx="5" fill="#c8ee8c"/>
<g transform="translate(153 27) scale(0.375)" fill="#26332b" fill-rule="evenodd"><path d="M24 30h16l5 27H19Z"/><path d="M32 24 20 6l-7 7 17 14-19 13 7 7 14-17 12 18 7-7-17-14 19-13-7-7Z"/><circle cx="32" cy="27" r="4"/></g>
<text x="14" y="101" font-family="DejaVu Sans,Arial,sans-serif" font-size="13" fill="#26332b" font-weight="bold">Мельница</text>
<text x="14" y="122" font-family="DejaVu Sans,Arial,sans-serif" font-size="10.5" fill="#617068">land/mill</text>
</g>
<g transform="translate(450 716)">
<rect width="200" height="138" rx="8" fill="#fff" stroke="#d9e1dc"/>
<g transform="translate(16 15) scale(1.0)" fill="#26332b" fill-rule="evenodd"><path d="M6 57V27H2L17 7 32 27h-4v8l15-14 19 18h-6v18Z"/></g>
<g transform="translate(105 28) scale(0.375)" fill="#26332b" fill-rule="evenodd"><path d="M6 57V27H2L17 7 32 27h-4v8l15-14 19 18h-6v18Z"/></g>
<rect x="146" y="20" width="38" height="38" rx="5" fill="#c8ee8c"/>
<g transform="translate(153 27) scale(0.375)" fill="#26332b" fill-rule="evenodd"><path d="M6 57V27H2L17 7 32 27h-4v8l15-14 19 18h-6v18Z"/></g>
<text x="14" y="101" font-family="DejaVu Sans,Arial,sans-serif" font-size="13" fill="#26332b" font-weight="bold">Монастырь</text>
<text x="14" y="122" font-family="DejaVu Sans,Arial,sans-serif" font-size="10.5" fill="#617068">land/monastery</text>
</g>
<g transform="translate(660 716)">
<rect width="200" height="138" rx="8" fill="#fff" stroke="#d9e1dc"/>
<g transform="translate(16 15) scale(1.0)" fill="#26332b" fill-rule="evenodd"><path d="M32 17v43" fill="none" stroke="#26332b" stroke-width="4" stroke-linecap="round" stroke-linejoin="round"/><path d="M32 4q-9 9 0 16 9-7 0-16Z"/><path d="M32 29Q19 28 17 15q13 2 15 14ZM32 29q13-1 15-14-13 2-15 14Z"/><path d="M32 40Q19 39 17 26q13 2 15 14ZM32 40q13-1 15-14-13 2-15 14Z"/><path d="M32 51Q19 50 17 37q13 2 15 14ZM32 51q13-1 15-14-13 2-15 14Z"/></g>
<g transform="translate(105 28) scale(0.375)" fill="#26332b" fill-rule="evenodd"><path d="M32 17v43" fill="none" stroke="#26332b" stroke-width="4" stroke-linecap="round" stroke-linejoin="round"/><path d="M32 4q-9 9 0 16 9-7 0-16Z"/><path d="M32 29Q19 28 17 15q13 2 15 14ZM32 29q13-1 15-14-13 2-15 14Z"/><path d="M32 40Q19 39 17 26q13 2 15 14ZM32 40q13-1 15-14-13 2-15 14Z"/><path d="M32 51Q19 50 17 37q13 2 15 14ZM32 51q13-1 15-14-13 2-15 14Z"/></g>
<rect x="146" y="20" width="38" height="38" rx="5" fill="#c8ee8c"/>
<g transform="translate(153 27) scale(0.375)" fill="#26332b" fill-rule="evenodd"><path d="M32 17v43" fill="none" stroke="#26332b" stroke-width="4" stroke-linecap="round" stroke-linejoin="round"/><path d="M32 4q-9 9 0 16 9-7 0-16Z"/><path d="M32 29Q19 28 17 15q13 2 15 14ZM32 29q13-1 15-14-13 2-15 14Z"/><path d="M32 40Q19 39 17 26q13 2 15 14ZM32 40q13-1 15-14-13 2-15 14Z"/><path d="M32 51Q19 50 17 37q13 2 15 14ZM32 51q13-1 15-14-13 2-15 14Z"/></g>
<text x="14" y="101" font-family="DejaVu Sans,Arial,sans-serif" font-size="13" fill="#26332b" font-weight="bold">Ферма</text>
<text x="14" y="122" font-family="DejaVu Sans,Arial,sans-serif" font-size="10.5" fill="#617068">land/farm</text>
</g>
<g transform="translate(870 716)">
<rect width="200" height="138" rx="8" fill="#fff" stroke="#d9e1dc"/>
<g transform="translate(16 15) scale(1.0)" fill="#26332b" fill-rule="evenodd"><circle cx="32" cy="17" r="10"/><path d="M12 45q0-14 15-15v-6h10v6q15 1 15 15v4H40v7h8v5H16v-5h8v-7H12Z"/></g>
<g transform="translate(105 28) scale(0.375)" fill="#26332b" fill-rule="evenodd"><circle cx="32" cy="17" r="10"/><path d="M12 45q0-14 15-15v-6h10v6q15 1 15 15v4H40v7h8v5H16v-5h8v-7H12Z"/></g>
<rect x="146" y="20" width="38" height="38" rx="5" fill="#c8ee8c"/>
<g transform="translate(153 27) scale(0.375)" fill="#26332b" fill-rule="evenodd"><circle cx="32" cy="17" r="10"/><path d="M12 45q0-14 15-15v-6h10v6q15 1 15 15v4H40v7h8v5H16v-5h8v-7H12Z"/></g>
<text x="14" y="101" font-family="DejaVu Sans,Arial,sans-serif" font-size="13" fill="#26332b" font-weight="bold">Статуя</text>
<text x="14" y="122" font-family="DejaVu Sans,Arial,sans-serif" font-size="10.5" fill="#617068">land/statue</text>
</g>
<g transform="translate(30 864)">
<rect width="200" height="138" rx="8" fill="#fff" stroke="#d9e1dc"/>
<g transform="translate(16 15) scale(1.0)" fill="#26332b" fill-rule="evenodd"><path d="M5 57V23h7v7h6v-7h8v13h12V23h8v7h6v-7h7v34ZM24 36V9h6v6h4V9h6v27Z" fill-rule="nonzero"/></g>
<g transform="translate(105 28) scale(0.375)" fill="#26332b" fill-rule="evenodd"><path d="M5 57V23h7v7h6v-7h8v13h12V23h8v7h6v-7h7v34ZM24 36V9h6v6h4V9h6v27Z" fill-rule="nonzero"/></g>
<rect x="146" y="20" width="38" height="38" rx="5" fill="#c8ee8c"/>
<g transform="translate(153 27) scale(0.375)" fill="#26332b" fill-rule="evenodd"><path d="M5 57V23h7v7h6v-7h8v13h12V23h8v7h6v-7h7v34ZM24 36V9h6v6h4V9h6v27Z" fill-rule="nonzero"/></g>
<text x="14" y="101" font-family="DejaVu Sans,Arial,sans-serif" font-size="13" fill="#26332b" font-weight="bold">Крепость</text>
<text x="14" y="122" font-family="DejaVu Sans,Arial,sans-serif" font-size="10.5" fill="#617068">land/stronghold</text>
</g>
<g transform="translate(240 864)">
<rect width="200" height="138" rx="8" fill="#fff" stroke="#d9e1dc"/>
<g transform="translate(16 15) scale(1.0)" fill="#26332b" fill-rule="evenodd"><path d="M20 8h24q6 5 8 13h3v7h-2q2 6 0 12h2v7h-3q-2 7-8 11H20q-6-4-8-11H9v-7h2q-2-6 0-12H9v-7h3q2-8 8-13Z"/></g>
<g transform="translate(105 28) scale(0.375)" fill="#26332b" fill-rule="evenodd"><path d="M20 8h24q6 5 8 13h3v7h-2q2 6 0 12h2v7h-3q-2 7-8 11H20q-6-4-8-11H9v-7h2q-2-6 0-12H9v-7h3q2-8 8-13Z"/></g>
<rect x="146" y="20" width="38" height="38" rx="5" fill="#c8ee8c"/>
<g transform="translate(153 27) scale(0.375)" fill="#26332b" fill-rule="evenodd"><path d="M20 8h24q6 5 8 13h3v7h-2q2 6 0 12h2v7h-3q-2 7-8 11H20q-6-4-8-11H9v-7h2q-2-6 0-12H9v-7h3q2-8 8-13Z"/></g>
<text x="14" y="101" font-family="DejaVu Sans,Arial,sans-serif" font-size="13" fill="#26332b" font-weight="bold">Пивоварня</text>
<text x="14" y="122" font-family="DejaVu Sans,Arial,sans-serif" font-size="10.5" fill="#617068">land/brewery</text>
</g>
<g transform="translate(450 864)">
<rect width="200" height="138" rx="8" fill="#fff" stroke="#d9e1dc"/>
<g transform="translate(16 15) scale(1.0)" fill="#26332b" fill-rule="evenodd"><path d="M14 28V17h5V7h10v10h5v11c15 8 14 22 5 30H9C0 50-1 36 14 28Z"/><path d="M29 20h13q10 0 10 10v7h7" fill="none" stroke="#26332b" stroke-width="5" stroke-linecap="round" stroke-linejoin="round"/></g>
<g transform="translate(105 28) scale(0.375)" fill="#26332b" fill-rule="evenodd"><path d="M14 28V17h5V7h10v10h5v11c15 8 14 22 5 30H9C0 50-1 36 14 28Z"/><path d="M29 20h13q10 0 10 10v7h7" fill="none" stroke="#26332b" stroke-width="5" stroke-linecap="round" stroke-linejoin="round"/></g>
<rect x="146" y="20" width="38" height="38" rx="5" fill="#c8ee8c"/>
<g transform="translate(153 27) scale(0.375)" fill="#26332b" fill-rule="evenodd"><path d="M14 28V17h5V7h10v10h5v11c15 8 14 22 5 30H9C0 50-1 36 14 28Z"/><path d="M29 20h13q10 0 10 10v7h7" fill="none" stroke="#26332b" stroke-width="5" stroke-linecap="round" stroke-linejoin="round"/></g>
<text x="14" y="101" font-family="DejaVu Sans,Arial,sans-serif" font-size="13" fill="#26332b" font-weight="bold">Винокурня</text>
<text x="14" y="122" font-family="DejaVu Sans,Arial,sans-serif" font-size="10.5" fill="#617068">land/distillery</text>
</g>
<g transform="translate(660 864)">
<rect width="200" height="138" rx="8" fill="#fff" stroke="#d9e1dc"/>
<g transform="translate(16 15) scale(1.0)" fill="#26332b" fill-rule="evenodd"><path d="M5 44 12 26 42 23 46 17h13v29H45l-3-7-6 6-5-5-5 6-5-5-5 6-5-5ZM48 24v15h5V24Z"/></g>
<g transform="translate(105 28) scale(0.375)" fill="#26332b" fill-rule="evenodd"><path d="M5 44 12 26 42 23 46 17h13v29H45l-3-7-6 6-5-5-5 6-5-5-5 6-5-5ZM48 24v15h5V24Z"/></g>
<rect x="146" y="20" width="38" height="38" rx="5" fill="#c8ee8c"/>
<g transform="translate(153 27) scale(0.375)" fill="#26332b" fill-rule="evenodd"><path d="M5 44 12 26 42 23 46 17h13v29H45l-3-7-6 6-5-5-5 6-5-5-5 6-5-5ZM48 24v15h5V24Z"/></g>
<text x="14" y="101" font-family="DejaVu Sans,Arial,sans-serif" font-size="13" fill="#26332b" font-weight="bold">Лесопилка</text>
<text x="14" y="122" font-family="DejaVu Sans,Arial,sans-serif" font-size="10.5" fill="#617068">land/sawmill</text>
</g>
<g transform="translate(870 864)">
<rect width="200" height="138" rx="8" fill="#fff" stroke="#d9e1dc"/>
<g transform="translate(16 15) scale(1.0)" fill="#26332b" fill-rule="evenodd"><path d="M8 22C26 4 47 11 59 37 42 23 27 18 8 22Z"/><path d="M31 21l7 4-21 34-7-4Z"/></g>
<g transform="translate(105 28) scale(0.375)" fill="#26332b" fill-rule="evenodd"><path d="M8 22C26 4 47 11 59 37 42 23 27 18 8 22Z"/><path d="M31 21l7 4-21 34-7-4Z"/></g>
<rect x="146" y="20" width="38" height="38" rx="5" fill="#c8ee8c"/>
<g transform="translate(153 27) scale(0.375)" fill="#26332b" fill-rule="evenodd"><path d="M8 22C26 4 47 11 59 37 42 23 27 18 8 22Z"/><path d="M31 21l7 4-21 34-7-4Z"/></g>
<text x="14" y="101" font-family="DejaVu Sans,Arial,sans-serif" font-size="13" fill="#26332b" font-weight="bold">Каменоломня</text>
<text x="14" y="122" font-family="DejaVu Sans,Arial,sans-serif" font-size="10.5" fill="#617068">land/stone_quarry</text>
</g>
<g transform="translate(30 1012)">
<rect width="200" height="138" rx="8" fill="#fff" stroke="#d9e1dc"/>
<g transform="translate(16 15) scale(1.0)" fill="#26332b" fill-rule="evenodd"><path d="M24 32C8 18 13 5 21 9c8 5 10 16 9 22 1-19 13-25 16-14 2 7-4 14-10 19Z"/><path d="M6 39 3 44l8 1q6 12 22 8 12-3 15-13l-3-8Q24 24 6 39Z"/><circle cx="48" cy="34" r="9"/><path d="M50 28l5-10M53 31l7-5" fill="none" stroke="#26332b" stroke-width="3.5" stroke-linecap="round" stroke-linejoin="round"/><path d="M22 48l-3 9M34 46l3 10" fill="none" stroke="#26332b" stroke-width="3.5" stroke-linecap="round" stroke-linejoin="round"/></g>
<g transform="translate(105 28) scale(0.375)" fill="#26332b" fill-rule="evenodd"><path d="M24 32C8 18 13 5 21 9c8 5 10 16 9 22 1-19 13-25 16-14 2 7-4 14-10 19Z"/><path d="M6 39 3 44l8 1q6 12 22 8 12-3 15-13l-3-8Q24 24 6 39Z"/><circle cx="48" cy="34" r="9"/><path d="M50 28l5-10M53 31l7-5" fill="none" stroke="#26332b" stroke-width="3.5" stroke-linecap="round" stroke-linejoin="round"/><path d="M22 48l-3 9M34 46l3 10" fill="none" stroke="#26332b" stroke-width="3.5" stroke-linecap="round" stroke-linejoin="round"/></g>
<rect x="146" y="20" width="38" height="38" rx="5" fill="#c8ee8c"/>
<g transform="translate(153 27) scale(0.375)" fill="#26332b" fill-rule="evenodd"><path d="M24 32C8 18 13 5 21 9c8 5 10 16 9 22 1-19 13-25 16-14 2 7-4 14-10 19Z"/><path d="M6 39 3 44l8 1q6 12 22 8 12-3 15-13l-3-8Q24 24 6 39Z"/><circle cx="48" cy="34" r="9"/><path d="M50 28l5-10M53 31l7-5" fill="none" stroke="#26332b" stroke-width="3.5" stroke-linecap="round" stroke-linejoin="round"/><path d="M22 48l-3 9M34 46l3 10" fill="none" stroke="#26332b" stroke-width="3.5" stroke-linecap="round" stroke-linejoin="round"/></g>
<text x="14" y="101" font-family="DejaVu Sans,Arial,sans-serif" font-size="13" fill="#26332b" font-weight="bold">Пасека</text>
<text x="14" y="122" font-family="DejaVu Sans,Arial,sans-serif" font-size="10.5" fill="#617068">land/apiary</text>
</g>
<g transform="translate(240 1012)">
<rect width="200" height="138" rx="8" fill="#fff" stroke="#d9e1dc"/>
<g transform="translate(16 15) scale(1.0)" fill="#26332b" fill-rule="evenodd"><path d="M20 6h24v7h-9v22h12v10c0 6-8 11-15 16-7-5-15-10-15-16V35h12V13h-9Z"/></g>
<g transform="translate(105 28) scale(0.375)" fill="#26332b" fill-rule="evenodd"><path d="M20 6h24v7h-9v22h12v10c0 6-8 11-15 16-7-5-15-10-15-16V35h12V13h-9Z"/></g>
<rect x="146" y="20" width="38" height="38" rx="5" fill="#c8ee8c"/>
<g transform="translate(153 27) scale(0.375)" fill="#26332b" fill-rule="evenodd"><path d="M20 6h24v7h-9v22h12v10c0 6-8 11-15 16-7-5-15-10-15-16V35h12V13h-9Z"/></g>
<text x="14" y="101" font-family="DejaVu Sans,Arial,sans-serif" font-size="13" fill="#26332b" font-weight="bold">Карьер</text>
<text x="14" y="122" font-family="DejaVu Sans,Arial,sans-serif" font-size="10.5" fill="#617068">land/quarry</text>
</g>
<g transform="translate(450 1012)">
<rect width="200" height="138" rx="8" fill="#fff" stroke="#d9e1dc"/>
<g transform="translate(16 15) scale(1.0)" fill="#26332b" fill-rule="evenodd"><path d="M55 27C52 9 30 5 16 16 2 27 10 48 27 51 44 54 56 39 46 26 37 14 20 21 22 34 23 41 35 44 38 35 40 29 31 25 29 32" fill="none" stroke="#26332b" stroke-width="5.5" stroke-linecap="round" stroke-linejoin="round"/></g>
<g transform="translate(105 28) scale(0.375)" fill="#26332b" fill-rule="evenodd"><path d="M55 27C52 9 30 5 16 16 2 27 10 48 27 51 44 54 56 39 46 26 37 14 20 21 22 34 23 41 35 44 38 35 40 29 31 25 29 32" fill="none" stroke="#26332b" stroke-width="5.5" stroke-linecap="round" stroke-linejoin="round"/></g>
<rect x="146" y="20" width="38" height="38" rx="5" fill="#3ea2ff"/>
<g transform="translate(153 27) scale(0.375)" fill="#26332b" fill-rule="evenodd"><path d="M55 27C52 9 30 5 16 16 2 27 10 48 27 51 44 54 56 39 46 26 37 14 20 21 22 34 23 41 35 44 38 35 40 29 31 25 29 32" fill="none" stroke="#26332b" stroke-width="5.5" stroke-linecap="round" stroke-linejoin="round"/></g>
<text x="14" y="101" font-family="DejaVu Sans,Arial,sans-serif" font-size="13" fill="#26332b" font-weight="bold">Водоворот</text>
<text x="14" y="122" font-family="DejaVu Sans,Arial,sans-serif" font-size="10.5" fill="#617068">water/whirlpool</text>
</g>
<g transform="translate(660 1012)">
<rect width="200" height="138" rx="8" fill="#fff" stroke="#d9e1dc"/>
<g transform="translate(16 15) scale(1.0)" fill="#26332b" fill-rule="evenodd"><path d="M7 22 26 9 34 17 40 12 57 22v7h-8v13h-9V29H23v13h-9V29H7Z"/><path d="M7 52q6-5 12 0t12 0t12 0t12 0" fill="none" stroke="#26332b" stroke-width="4" stroke-linecap="round" stroke-linejoin="round"/></g>
<g transform="translate(105 28) scale(0.375)" fill="#26332b" fill-rule="evenodd"><path d="M7 22 26 9 34 17 40 12 57 22v7h-8v13h-9V29H23v13h-9V29H7Z"/><path d="M7 52q6-5 12 0t12 0t12 0t12 0" fill="none" stroke="#26332b" stroke-width="4" stroke-linecap="round" stroke-linejoin="round"/></g>
<rect x="146" y="20" width="38" height="38" rx="5" fill="#3ea2ff"/>
<g transform="translate(153 27) scale(0.375)" fill="#26332b" fill-rule="evenodd"><path d="M7 22 26 9 34 17 40 12 57 22v7h-8v13h-9V29H23v13h-9V29H7Z"/><path d="M7 52q6-5 12 0t12 0t12 0t12 0" fill="none" stroke="#26332b" stroke-width="4" stroke-linecap="round" stroke-linejoin="round"/></g>
<text x="14" y="101" font-family="DejaVu Sans,Arial,sans-serif" font-size="13" fill="#26332b" font-weight="bold">Подводные руины</text>
<text x="14" y="122" font-family="DejaVu Sans,Arial,sans-serif" font-size="10.5" fill="#617068">water/underwater_ruins</text>
</g>
<g transform="translate(870 1012)">
<rect width="200" height="138" rx="8" fill="#fff" stroke="#d9e1dc"/>
<g transform="translate(16 15) scale(1.0)" fill="#26332b" fill-rule="evenodd"><path d="M10 43C7 34 14 29 25 26c7-3 7-6 4-10l-4-8 12 4 8-6-1 11 11 7-5 8-10-2c-3 7-14 5-16 13Z"/><path d="M7 52q6-5 12 0t12 0t12 0t12 0" fill="none" stroke="#26332b" stroke-width="4" stroke-linecap="round" stroke-linejoin="round"/></g>
<g transform="translate(105 28) scale(0.375)" fill="#26332b" fill-rule="evenodd"><path d="M10 43C7 34 14 29 25 26c7-3 7-6 4-10l-4-8 12 4 8-6-1 11 11 7-5 8-10-2c-3 7-14 5-16 13Z"/><path d="M7 52q6-5 12 0t12 0t12 0t12 0" fill="none" stroke="#26332b" stroke-width="4" stroke-linecap="round" stroke-linejoin="round"/></g>
<rect x="146" y="20" width="38" height="38" rx="5" fill="#3ea2ff"/>
<g transform="translate(153 27) scale(0.375)" fill="#26332b" fill-rule="evenodd"><path d="M10 43C7 34 14 29 25 26c7-3 7-6 4-10l-4-8 12 4 8-6-1 11 11 7-5 8-10-2c-3 7-14 5-16 13Z"/><path d="M7 52q6-5 12 0t12 0t12 0t12 0" fill="none" stroke="#26332b" stroke-width="4" stroke-linecap="round" stroke-linejoin="round"/></g>
<text x="14" y="101" font-family="DejaVu Sans,Arial,sans-serif" font-size="13" fill="#26332b" font-weight="bold">Водное логово</text>
<text x="14" y="122" font-family="DejaVu Sans,Arial,sans-serif" font-size="10.5" fill="#617068">water/lair</text>
</g>
<g transform="translate(30 1160)">
<rect width="200" height="138" rx="8" fill="#fff" stroke="#d9e1dc"/>
<g transform="translate(16 15) scale(1.0)" fill="#26332b" fill-rule="evenodd"><path d="M5 43 16 18 23 34 32 8 43 32 52 21 59 43Z"/><path d="M7 52q6-5 12 0t12 0t12 0t12 0" fill="none" stroke="#26332b" stroke-width="4" stroke-linecap="round" stroke-linejoin="round"/></g>
<g transform="translate(105 28) scale(0.375)" fill="#26332b" fill-rule="evenodd"><path d="M5 43 16 18 23 34 32 8 43 32 52 21 59 43Z"/><path d="M7 52q6-5 12 0t12 0t12 0t12 0" fill="none" stroke="#26332b" stroke-width="4" stroke-linecap="round" stroke-linejoin="round"/></g>
<rect x="146" y="20" width="38" height="38" rx="5" fill="#3ea2ff"/>
<g transform="translate(153 27) scale(0.375)" fill="#26332b" fill-rule="evenodd"><path d="M5 43 16 18 23 34 32 8 43 32 52 21 59 43Z"/><path d="M7 52q6-5 12 0t12 0t12 0t12 0" fill="none" stroke="#26332b" stroke-width="4" stroke-linecap="round" stroke-linejoin="round"/></g>
<text x="14" y="101" font-family="DejaVu Sans,Arial,sans-serif" font-size="13" fill="#26332b" font-weight="bold">Скалы</text>
<text x="14" y="122" font-family="DejaVu Sans,Arial,sans-serif" font-size="10.5" fill="#617068">water/rocks</text>
</g>
<g transform="translate(240 1160)">
<rect width="200" height="138" rx="8" fill="#fff" stroke="#d9e1dc"/>
<g transform="translate(16 15) scale(1.0)" fill="#26332b" fill-rule="evenodd"><path d="M5 43 11 25 25 11 41 10 54 28l5 15H43V34a11 11 0 0 0-22 0v9Z"/><path d="M7 52q6-5 12 0t12 0t12 0t12 0" fill="none" stroke="#26332b" stroke-width="4" stroke-linecap="round" stroke-linejoin="round"/></g>
<g transform="translate(105 28) scale(0.375)" fill="#26332b" fill-rule="evenodd"><path d="M5 43 11 25 25 11 41 10 54 28l5 15H43V34a11 11 0 0 0-22 0v9Z"/><path d="M7 52q6-5 12 0t12 0t12 0t12 0" fill="none" stroke="#26332b" stroke-width="4" stroke-linecap="round" stroke-linejoin="round"/></g>
<rect x="146" y="20" width="38" height="38" rx="5" fill="#3ea2ff"/>
<g transform="translate(153 27) scale(0.375)" fill="#26332b" fill-rule="evenodd"><path d="M5 43 11 25 25 11 41 10 54 28l5 15H43V34a11 11 0 0 0-22 0v9Z"/><path d="M7 52q6-5 12 0t12 0t12 0t12 0" fill="none" stroke="#26332b" stroke-width="4" stroke-linecap="round" stroke-linejoin="round"/></g>
<text x="14" y="101" font-family="DejaVu Sans,Arial,sans-serif" font-size="13" fill="#26332b" font-weight="bold">Подводная пещера</text>
<text x="14" y="122" font-family="DejaVu Sans,Arial,sans-serif" font-size="10.5" fill="#617068">water/underwater_cave</text>
</g>
<g transform="translate(450 1160)">
<rect width="200" height="138" rx="8" fill="#fff" stroke="#d9e1dc"/>
<g transform="translate(16 15) scale(1.0)" fill="#26332b" fill-rule="evenodd"><path d="M6 34 27 39l-5 7C13 45 8 41 6 34ZM34 40l24-6c-5 10-16 14-29 12Z"/><path d="M37 8 28 40" fill="none" stroke="#26332b" stroke-width="4" stroke-linecap="round" stroke-linejoin="round"/><path d="M35 13 16 17l-3 13 16 4Z"/><path d="M7 52q6-5 12 0t12 0t12 0t12 0" fill="none" stroke="#26332b" stroke-width="4" stroke-linecap="round" stroke-linejoin="round"/></g>
<g transform="translate(105 28) scale(0.375)" fill="#26332b" fill-rule="evenodd"><path d="M6 34 27 39l-5 7C13 45 8 41 6 34ZM34 40l24-6c-5 10-16 14-29 12Z"/><path d="M37 8 28 40" fill="none" stroke="#26332b" stroke-width="4" stroke-linecap="round" stroke-linejoin="round"/><path d="M35 13 16 17l-3 13 16 4Z"/><path d="M7 52q6-5 12 0t12 0t12 0t12 0" fill="none" stroke="#26332b" stroke-width="4" stroke-linecap="round" stroke-linejoin="round"/></g>
<rect x="146" y="20" width="38" height="38" rx="5" fill="#3ea2ff"/>
<g transform="translate(153 27) scale(0.375)" fill="#26332b" fill-rule="evenodd"><path d="M6 34 27 39l-5 7C13 45 8 41 6 34ZM34 40l24-6c-5 10-16 14-29 12Z"/><path d="M37 8 28 40" fill="none" stroke="#26332b" stroke-width="4" stroke-linecap="round" stroke-linejoin="round"/><path d="M35 13 16 17l-3 13 16 4Z"/><path d="M7 52q6-5 12 0t12 0t12 0t12 0" fill="none" stroke="#26332b" stroke-width="4" stroke-linecap="round" stroke-linejoin="round"/></g>
<text x="14" y="101" font-family="DejaVu Sans,Arial,sans-serif" font-size="13" fill="#26332b" font-weight="bold">Кораблекрушение</text>
<text x="14" y="122" font-family="DejaVu Sans,Arial,sans-serif" font-size="10.5" fill="#617068">water/shipwreck</text>
</g>
<g transform="translate(660 1160)">
<rect width="200" height="138" rx="8" fill="#fff" stroke="#d9e1dc"/>
<g transform="translate(16 15) scale(1.0)" fill="#26332b" fill-rule="evenodd"><path d="M32 9 55 32 32 55 9 32Z"/></g>
<g transform="translate(105 28) scale(0.375)" fill="#26332b" fill-rule="evenodd"><path d="M32 9 55 32 32 55 9 32Z"/></g>
<rect x="146" y="20" width="38" height="38" rx="5" fill="#c8ee8c"/>
<g transform="translate(153 27) scale(0.375)" fill="#26332b" fill-rule="evenodd"><path d="M32 9 55 32 32 55 9 32Z"/></g>
<text x="14" y="101" font-family="DejaVu Sans,Arial,sans-serif" font-size="13" fill="#26332b" font-weight="bold">Точка без типа</text>
<text x="14" y="122" font-family="DejaVu Sans,Arial,sans-serif" font-size="10.5" fill="#617068">fallback/unknown</text>
</g>
</svg>
