<svg xmlns="http://www.w3.org/2000/svg" viewBox="0 0 100 116"><path d="M16 78L30 22L39 39L56 39L65 56L76 78Z" fill="#B6B3A7" stroke="none" stroke-width="0" opacity="1" stroke-linecap="round" stroke-linejoin="round"/><path d="M30 22L39 39L50 78L33 75L34 45Z" fill="#615F50" stroke="none" stroke-width="0" opacity="0.48" stroke-linecap="round" stroke-linejoin="round"/><path d="M30 22L27 34L32 44L28 74" fill="none" stroke="#4A4B40" stroke-width="1.15" opacity="1" stroke-linecap="round" stroke-linejoin="round"/><path d="M36 42L42 73M39 46L46 75" fill="none" stroke="#696654" stroke-width="0.8" opacity="1" stroke-linecap="round" stroke-linejoin="round"/><path d="M56 39L65 56L76 78L59 75L60 62Z" fill="#615F50" stroke="none" stroke-width="0" opacity="0.48" stroke-linecap="round" stroke-linejoin="round"/><path d="M56 39L53 51L58 61L54 74" fill="none" stroke="#4A4B40" stroke-width="1.15" opacity="1" stroke-linecap="round" stroke-linejoin="round"/><path d="M62 59L68 73M65 63L72 75" fill="none" stroke="#696654" stroke-width="0.8" opacity="1" stroke-linecap="round" stroke-linejoin="round"/><path d="M16 78L30 22L39 39L56 39L65 56L76 78" fill="none" stroke="#3E4437" stroke-width="1.65" opacity="1" stroke-linecap="round" stroke-linejoin="round"/><path d="M13 99L27 54L36 71L62 19L71 36L78 53L87 70L98 99Z" fill="#B6B3A7" stroke="none" stroke-width="0" opacity="1" stroke-linecap="round" stroke-linejoin="round"/><path d="M27 54L36 71L47 99L30 96L31 77Z" fill="#615F50" stroke="none" stroke-width="0" opacity="0.48" stroke-linecap="round" stroke-linejoin="round"/><path d="M27 54L24 66L29 76L25 95" fill="none" stroke="#4A4B40" stroke-width="1.15" opacity="1" stroke-linecap="round" stroke-linejoin="round"/><path d="M33 74L39 94M36 78L43 96" fill="none" stroke="#696654" stroke-width="0.8" opacity="1" stroke-linecap="round" stroke-linejoin="round"/><path d="M62 19L71 36L82 99L65 96L66 42Z" fill="#615F50" stroke="none" stroke-width="0" opacity="0.48" stroke-linecap="round" stroke-linejoin="round"/><path d="M62 19L59 31L64 41L60 95" fill="none" stroke="#4A4B40" stroke-width="1.15" opacity="1" stroke-linecap="round" stroke-linejoin="round"/><path d="M68 39L74 94M71 43L78 96" fill="none" stroke="#696654" stroke-width="0.8" opacity="1" stroke-linecap="round" stroke-linejoin="round"/><path d="M78 53L87 70L98 99L81 96L82 76Z" fill="#615F50" stroke="none" stroke-width="0" opacity="0.48" stroke-linecap="round" stroke-linejoin="round"/><path d="M78 53L75 65L80 75L76 95" fill="none" stroke="#4A4B40" stroke-width="1.15" opacity="1" stroke-linecap="round" stroke-linejoin="round"/><path d="M84 73L90 94M87 77L94 96" fill="none" stroke="#696654" stroke-width="0.8" opacity="1" stroke-linecap="round" stroke-linejoin="round"/><path d="M13 99L27 54L36 71L62 19L71 36L78 53L87 70L98 99" fill="none" stroke="#3E4437" stroke-width="1.65" opacity="1" stroke-linecap="round" stroke-linejoin="round"/></svg>
