<svg xmlns="http://www.w3.org/2000/svg" viewBox="0 0 100 116"><g transform="translate(22 33) scale(0.85)"><path d="M-5 2Q-3 -2 -5 -5M0 2Q2 -3 1 -8M4 2L7 -3M-7 3Q0 5 8 3" fill="none" stroke="#526441" stroke-width="1.25" opacity="1" stroke-linecap="round" stroke-linejoin="round"/></g><g transform="translate(44 42) scale(1.05)"><path d="M-4 2L-7 -3M-1 2Q-3 -5 0 -6M3 2L6 -4M-6 3L6 3" fill="none" stroke="#526441" stroke-width="1.25" opacity="1" stroke-linecap="round" stroke-linejoin="round"/></g><g transform="translate(66 51) scale(1.25)"><path d="M-5 2L-7 -1M-1 2Q1 -3 -1 -5M4 2L7 -1M-5 4Q0 5 5 4" fill="none" stroke="#526441" stroke-width="1.25" opacity="1" stroke-linecap="round" stroke-linejoin="round"/></g><g transform="translate(79 69) scale(0.85)"><path d="M-5 3Q-2 0 -3 -4M1 2L3 -7M4 3L8 -2M-7 4L7 4" fill="none" stroke="#526441" stroke-width="1.25" opacity="1" stroke-linecap="round" stroke-linejoin="round"/></g><g transform="translate(51 74) scale(1.05)"><path d="M-5 2Q-3 -2 -5 -5M0 2Q2 -3 1 -8M4 2L7 -3M-7 3Q0 5 8 3" fill="none" stroke="#526441" stroke-width="1.25" opacity="1" stroke-linecap="round" stroke-linejoin="round"/></g><g transform="translate(29 87) scale(1.25)"><path d="M-4 2L-7 -3M-1 2Q-3 -5 0 -6M3 2L6 -4M-6 3L6 3" fill="none" stroke="#526441" stroke-width="1.25" opacity="1" stroke-linecap="round" stroke-linejoin="round"/></g><g transform="translate(56 100) scale(0.85)"><path d="M-5 2L-7 -1M-1 2Q1 -3 -1 -5M4 2L7 -1M-5 4Q0 5 5 4" fill="none" stroke="#526441" stroke-width="1.25" opacity="1" stroke-linecap="round" stroke-linejoin="round"/></g><path d="M15 62Q36 49 61 62T89 66" fill="none" stroke="#7C8B58" stroke-width="1" opacity="0.55" stroke-linecap="round" stroke-linejoin="round"/></svg>
