<svg xmlns="http://www.w3.org/2000/svg" viewBox="0 0 100 116"><path d="M13 45Q24 30 43 42T81 39Q93 48 78 59Q62 63 44 53T13 58Z" fill="#638E87" stroke="#526C55" stroke-width="1.1" opacity="0.65" stroke-linecap="round" stroke-linejoin="round"/><path d="M18 81Q40 63 57 78T86 83Q83 99 63 94T27 98Z" fill="#638E87" stroke="#526C55" stroke-width="1.1" opacity="0.65" stroke-linecap="round" stroke-linejoin="round"/><g transform="translate(24 31) scale(0.62)"><path d="M-17 7Q-10 3 -3 6Q2 9 14 6Q18 8 12 10Q0 13 -13 10Z" fill="#638E87" stroke="none" stroke-width="0" opacity="0.35" stroke-linecap="round" stroke-linejoin="round"/><path d="M-18 8Q-9 10 -4 8M3 11Q10 13 18 10" fill="none" stroke="#536E5B" stroke-width="1" opacity="1" stroke-linecap="round" stroke-linejoin="round"/><path d="M-7 6L-8 -7M-2 7L-1 -11M4 7L6 -4M-8 1L-12 -3M-1 1L3 -4" fill="none" stroke="#43513A" stroke-width="1.2" opacity="1" stroke-linecap="round" stroke-linejoin="round"/><path d="M-8 -9L-8 -5M-1 -13L-1 -9" fill="none" stroke="#706044" stroke-width="2.8" opacity="1" stroke-linecap="round" stroke-linejoin="round"/></g><g transform="translate(62 29) scale(0.74)"><path d="M-17 7Q-10 3 -3 6Q2 9 14 6Q18 8 12 10Q0 13 -13 10Z" fill="#638E87" stroke="none" stroke-width="0" opacity="0.35" stroke-linecap="round" stroke-linejoin="round"/><path d="M-16 10L-4 10M3 8Q10 11 16 8" fill="none" stroke="#536E5B" stroke-width="1" opacity="1" stroke-linecap="round" stroke-linejoin="round"/><path d="M-7 6L-8 -7M-2 7L-1 -11M4 7L6 -4M-8 1L-12 -3M-1 1L3 -4" fill="none" stroke="#43513A" stroke-width="1.2" opacity="1" stroke-linecap="round" stroke-linejoin="round"/><path d="M-8 -9L-8 -5M-1 -13L-1 -9" fill="none" stroke="#706044" stroke-width="2.8" opacity="1" stroke-linecap="round" stroke-linejoin="round"/></g><g transform="translate(84 58) scale(0.86)"><path d="M-17 7Q-10 3 -3 6Q2 9 14 6Q18 8 12 10Q0 13 -13 10Z" fill="#638E87" stroke="none" stroke-width="0" opacity="0.35" stroke-linecap="round" stroke-linejoin="round"/><path d="M-18 7Q-11 10 -5 8M0 12L16 12" fill="none" stroke="#536E5B" stroke-width="1" opacity="1" stroke-linecap="round" stroke-linejoin="round"/><path d="M-7 6L-8 -7M-2 7L-1 -11M4 7L6 -4M-8 1L-12 -3M-1 1L3 -4" fill="none" stroke="#43513A" stroke-width="1.2" opacity="1" stroke-linecap="round" stroke-linejoin="round"/><path d="M-8 -9L-8 -5M-1 -13L-1 -9" fill="none" stroke="#706044" stroke-width="2.8" opacity="1" stroke-linecap="round" stroke-linejoin="round"/></g><g transform="translate(37 64) scale(0.62)"><path d="M-17 7Q-10 3 -3 6Q2 9 14 6Q18 8 12 10Q0 13 -13 10Z" fill="#638E87" stroke="none" stroke-width="0" opacity="0.35" stroke-linecap="round" stroke-linejoin="round"/><path d="M-15 11Q-8 13 0 10M7 8L17 8" fill="none" stroke="#536E5B" stroke-width="1" opacity="1" stroke-linecap="round" stroke-linejoin="round"/><path d="M-7 6L-8 -7M-2 7L-1 -11M4 7L6 -4M-8 1L-12 -3M-1 1L3 -4" fill="none" stroke="#43513A" stroke-width="1.2" opacity="1" stroke-linecap="round" stroke-linejoin="round"/><path d="M-8 -9L-8 -5M-1 -13L-1 -9" fill="none" stroke="#706044" stroke-width="2.8" opacity="1" stroke-linecap="round" stroke-linejoin="round"/></g><g transform="translate(16 72) scale(0.74)"><path d="M-17 7Q-10 3 -3 6Q2 9 14 6Q18 8 12 10Q0 13 -13 10Z" fill="#638E87" stroke="none" stroke-width="0" opacity="0.35" stroke-linecap="round" stroke-linejoin="round"/><path d="M-18 8Q-9 10 -4 8M3 11Q10 13 18 10" fill="none" stroke="#536E5B" stroke-width="1" opacity="1" stroke-linecap="round" stroke-linejoin="round"/><path d="M-7 6L-8 -7M-2 7L-1 -11M4 7L6 -4M-8 1L-12 -3M-1 1L3 -4" fill="none" stroke="#43513A" stroke-width="1.2" opacity="1" stroke-linecap="round" stroke-linejoin="round"/><path d="M-8 -9L-8 -5M-1 -13L-1 -9" fill="none" stroke="#706044" stroke-width="2.8" opacity="1" stroke-linecap="round" stroke-linejoin="round"/></g><g transform="translate(62 73) scale(0.86)"><path d="M-17 7Q-10 3 -3 6Q2 9 14 6Q18 8 12 10Q0 13 -13 10Z" fill="#638E87" stroke="none" stroke-width="0" opacity="0.35" stroke-linecap="round" stroke-linejoin="round"/><path d="M-16 10L-4 10M3 8Q10 11 16 8" fill="none" stroke="#536E5B" stroke-width="1" opacity="1" stroke-linecap="round" stroke-linejoin="round"/><path d="M-7 6L-8 -7M-2 7L-1 -11M4 7L6 -4M-8 1L-12 -3M-1 1L3 -4" fill="none" stroke="#43513A" stroke-width="1.2" opacity="1" stroke-linecap="round" stroke-linejoin="round"/><path d="M-8 -9L-8 -5M-1 -13L-1 -9" fill="none" stroke="#706044" stroke-width="2.8" opacity="1" stroke-linecap="round" stroke-linejoin="round"/></g><g transform="translate(42 98) scale(0.62)"><path d="M-17 7Q-10 3 -3 6Q2 9 14 6Q18 8 12 10Q0 13 -13 10Z" fill="#638E87" stroke="none" stroke-width="0" opacity="0.35" stroke-linecap="round" stroke-linejoin="round"/><path d="M-18 7Q-11 10 -5 8M0 12L16 12" fill="none" stroke="#536E5B" stroke-width="1" opacity="1" stroke-linecap="round" stroke-linejoin="round"/><path d="M-7 6L-8 -7M-2 7L-1 -11M4 7L6 -4M-8 1L-12 -3M-1 1L3 -4" fill="none" stroke="#43513A" stroke-width="1.2" opacity="1" stroke-linecap="round" stroke-linejoin="round"/><path d="M-8 -9L-8 -5M-1 -13L-1 -9" fill="none" stroke="#706044" stroke-width="2.8" opacity="1" stroke-linecap="round" stroke-linejoin="round"/></g><g transform="translate(79 97) scale(0.74)"><path d="M-17 7Q-10 3 -3 6Q2 9 14 6Q18 8 12 10Q0 13 -13 10Z" fill="#638E87" stroke="none" stroke-width="0" opacity="0.35" stroke-linecap="round" stroke-linejoin="round"/><path d="M-15 11Q-8 13 0 10M7 8L17 8" fill="none" stroke="#536E5B" stroke-width="1" opacity="1" stroke-linecap="round" stroke-linejoin="round"/><path d="M-7 6L-8 -7M-2 7L-1 -11M4 7L6 -4M-8 1L-12 -3M-1 1L3 -4" fill="none" stroke="#43513A" stroke-width="1.2" opacity="1" stroke-linecap="round" stroke-linejoin="round"/><path d="M-8 -9L-8 -5M-1 -13L-1 -9" fill="none" stroke="#706044" stroke-width="2.8" opacity="1" stroke-linecap="round" stroke-linejoin="round"/></g><path d="M27 48L36 48M56 52L70 52M32 85L41 85M57 90L70 90" fill="none" stroke="#496B60" stroke-width="1" opacity="1" stroke-linecap="round" stroke-linejoin="round"/></svg>
