<svg xmlns="http://www.w3.org/2000/svg" viewBox="0 0 100 116"><g transform="translate(0 10)"><path d="M47 39L48 24L52 24L53 39" fill="#665840" stroke="none" stroke-width="0" opacity="1" stroke-linecap="round" stroke-linejoin="round"/><path d="M49 28Q37 31 35 23Q29 21 34 14Q32 7 40 7Q43 -1 50 3Q57 -1 62 7Q70 8 67 16Q72 22 64 25Q62 32 52 28Z" fill="#81945F" stroke="#3D4B33" stroke-width="1.5" opacity="0.95" stroke-linecap="round" stroke-linejoin="round"/><path d="M38 20Q40 15 45 18M49 10Q53 7 57 12M54 23Q58 19 63 21" fill="none" stroke="#50613C" stroke-width="1" opacity="1" stroke-linecap="round" stroke-linejoin="round"/><path d="M43 41Q50 43 57 41" fill="none" stroke="#68734E" stroke-width="1" opacity="1" stroke-linecap="round" stroke-linejoin="round"/></g></svg>
